<mxfile host="app.diagrams.net" modified="2023-10-15T21:40:43.355Z" agent="Mozilla/5.0 (X11; Linux x86_64; rv:109.0) Gecko/20100101 Firefox/118.0" etag="Fej0BHNOSuQtEobcNqh5" version="22.0.4" type="device">
  <diagram name="PÃ¡gina-1" id="TXax3lWE6bbQa8R0nEwo">
    <mxGraphModel dx="553" dy="349" grid="1" gridSize="10" guides="1" tooltips="1" connect="1" arrows="1" fold="1" page="1" pageScale="1" pageWidth="827" pageHeight="1169" math="0" shadow="0">
      <root>
        <mxCell id="0" />
        <mxCell id="1" parent="0" />
        <mxCell id="rnWshpyR3_FJ3rtjjiAS-28" value="" style="rounded=1;whiteSpace=wrap;html=1;fillColor=#dae8fc;strokeColor=#6c8ebf;" vertex="1" parent="1">
          <mxGeometry x="310" y="237" width="90" height="72.75" as="geometry" />
        </mxCell>
        <mxCell id="rnWshpyR3_FJ3rtjjiAS-23" value="" style="rounded=1;whiteSpace=wrap;html=1;fillColor=#dae8fc;strokeColor=#6c8ebf;" vertex="1" parent="1">
          <mxGeometry x="430" y="237" width="120" height="72.75" as="geometry" />
        </mxCell>
        <mxCell id="rnWshpyR3_FJ3rtjjiAS-10" value="" style="image;aspect=fixed;perimeter=ellipsePerimeter;html=1;align=center;shadow=0;dashed=0;spacingTop=3;image=img/lib/active_directory/web_server.svg;" vertex="1" parent="1">
          <mxGeometry x="220" y="130" width="40" height="50" as="geometry" />
        </mxCell>
        <mxCell id="rnWshpyR3_FJ3rtjjiAS-1" value="" style="image;sketch=0;aspect=fixed;html=1;points=[];align=center;fontSize=12;image=img/lib/mscae/Docker.svg;" vertex="1" parent="1">
          <mxGeometry x="210" y="170" width="24.39" height="20" as="geometry" />
        </mxCell>
        <mxCell id="rnWshpyR3_FJ3rtjjiAS-11" value="" style="shape=image;html=1;verticalAlign=top;verticalLabelPosition=bottom;labelBackgroundColor=#ffffff;imageAspect=0;aspect=fixed;image=https://cdn1.iconfinder.com/data/icons/CrystalClear/128x128/mimetypes/php.png" vertex="1" parent="1">
          <mxGeometry x="330" y="130" width="50" height="50" as="geometry" />
        </mxCell>
        <mxCell id="rnWshpyR3_FJ3rtjjiAS-12" value="" style="image;sketch=0;aspect=fixed;html=1;points=[];align=center;fontSize=12;image=img/lib/mscae/Docker.svg;" vertex="1" parent="1">
          <mxGeometry x="320" y="170" width="24.39" height="20" as="geometry" />
        </mxCell>
        <mxCell id="rnWshpyR3_FJ3rtjjiAS-13" value="" style="shape=image;html=1;verticalAlign=top;verticalLabelPosition=bottom;labelBackgroundColor=#ffffff;imageAspect=0;aspect=fixed;image=https://cdn1.iconfinder.com/data/icons/CrystalClear/128x128/mimetypes/php.png" vertex="1" parent="1">
          <mxGeometry x="332" y="244" width="50" height="50" as="geometry" />
        </mxCell>
        <mxCell id="rnWshpyR3_FJ3rtjjiAS-14" value="" style="image;sketch=0;aspect=fixed;html=1;points=[];align=center;fontSize=12;image=img/lib/mscae/Docker.svg;" vertex="1" parent="1">
          <mxGeometry x="322" y="284" width="24.39" height="20" as="geometry" />
        </mxCell>
        <mxCell id="rnWshpyR3_FJ3rtjjiAS-15" value="" style="outlineConnect=0;dashed=0;verticalLabelPosition=bottom;verticalAlign=top;align=center;html=1;shape=mxgraph.aws3.volume;fillColor=#E05243;gradientColor=none;" vertex="1" parent="1">
          <mxGeometry x="370" y="281.5" width="20" height="22.5" as="geometry" />
        </mxCell>
        <mxCell id="rnWshpyR3_FJ3rtjjiAS-16" value="" style="sketch=0;outlineConnect=0;fontColor=#232F3E;gradientColor=none;fillColor=#C925D1;strokeColor=none;dashed=0;verticalLabelPosition=bottom;verticalAlign=top;align=center;html=1;fontSize=12;fontStyle=0;aspect=fixed;pointerEvents=1;shape=mxgraph.aws4.rds_mysql_instance;" vertex="1" parent="1">
          <mxGeometry x="470" y="135" width="40" height="40" as="geometry" />
        </mxCell>
        <mxCell id="rnWshpyR3_FJ3rtjjiAS-17" value="" style="html=1;verticalLabelPosition=bottom;align=center;labelBackgroundColor=#ffffff;verticalAlign=top;strokeWidth=2;strokeColor=#0080F0;shadow=0;dashed=0;shape=mxgraph.ios7.icons.data;" vertex="1" parent="1">
          <mxGeometry x="498" y="244" width="32" height="36" as="geometry" />
        </mxCell>
        <mxCell id="rnWshpyR3_FJ3rtjjiAS-18" value="" style="image;sketch=0;aspect=fixed;html=1;points=[];align=center;fontSize=12;image=img/lib/mscae/Docker.svg;" vertex="1" parent="1">
          <mxGeometry x="460" y="170" width="24.39" height="20" as="geometry" />
        </mxCell>
        <mxCell id="rnWshpyR3_FJ3rtjjiAS-19" value="" style="sketch=0;outlineConnect=0;fontColor=#232F3E;gradientColor=none;fillColor=#C925D1;strokeColor=none;dashed=0;verticalLabelPosition=bottom;verticalAlign=top;align=center;html=1;fontSize=12;fontStyle=0;aspect=fixed;pointerEvents=1;shape=mxgraph.aws4.rds_mysql_instance;" vertex="1" parent="1">
          <mxGeometry x="441.69" y="244" width="40.7" height="40.7" as="geometry" />
        </mxCell>
        <mxCell id="rnWshpyR3_FJ3rtjjiAS-20" value="" style="image;sketch=0;aspect=fixed;html=1;points=[];align=center;fontSize=12;image=img/lib/mscae/Docker.svg;" vertex="1" parent="1">
          <mxGeometry x="477.81" y="282.75" width="24.39" height="20" as="geometry" />
        </mxCell>
        <mxCell id="rnWshpyR3_FJ3rtjjiAS-24" value="" style="endArrow=classic;startArrow=classic;html=1;rounded=0;" edge="1" parent="1" source="rnWshpyR3_FJ3rtjjiAS-10" target="rnWshpyR3_FJ3rtjjiAS-11">
          <mxGeometry width="50" height="50" relative="1" as="geometry">
            <mxPoint x="340" y="250" as="sourcePoint" />
            <mxPoint x="390" y="200" as="targetPoint" />
          </mxGeometry>
        </mxCell>
        <mxCell id="rnWshpyR3_FJ3rtjjiAS-25" value="" style="endArrow=classic;startArrow=classic;html=1;rounded=0;" edge="1" parent="1" source="rnWshpyR3_FJ3rtjjiAS-11" target="rnWshpyR3_FJ3rtjjiAS-16">
          <mxGeometry width="50" height="50" relative="1" as="geometry">
            <mxPoint x="390" y="154.66" as="sourcePoint" />
            <mxPoint x="460" y="154.66" as="targetPoint" />
          </mxGeometry>
        </mxCell>
        <mxCell id="rnWshpyR3_FJ3rtjjiAS-26" value="" style="endArrow=classic;startArrow=classic;html=1;rounded=0;entryX=0.5;entryY=0;entryDx=0;entryDy=0;" edge="1" parent="1" source="rnWshpyR3_FJ3rtjjiAS-16" target="rnWshpyR3_FJ3rtjjiAS-23">
          <mxGeometry width="50" height="50" relative="1" as="geometry">
            <mxPoint x="390" y="165" as="sourcePoint" />
            <mxPoint x="480" y="165" as="targetPoint" />
          </mxGeometry>
        </mxCell>
        <mxCell id="rnWshpyR3_FJ3rtjjiAS-27" value="" style="endArrow=classic;startArrow=classic;html=1;rounded=0;exitX=0.435;exitY=-0.026;exitDx=0;exitDy=0;exitPerimeter=0;" edge="1" parent="1" source="rnWshpyR3_FJ3rtjjiAS-23" target="rnWshpyR3_FJ3rtjjiAS-11">
          <mxGeometry width="50" height="50" relative="1" as="geometry">
            <mxPoint x="340" y="250" as="sourcePoint" />
            <mxPoint x="390" y="200" as="targetPoint" />
          </mxGeometry>
        </mxCell>
        <mxCell id="rnWshpyR3_FJ3rtjjiAS-29" value="" style="endArrow=classic;startArrow=classic;html=1;rounded=0;entryX=0.5;entryY=0;entryDx=0;entryDy=0;" edge="1" parent="1" source="rnWshpyR3_FJ3rtjjiAS-11" target="rnWshpyR3_FJ3rtjjiAS-28">
          <mxGeometry width="50" height="50" relative="1" as="geometry">
            <mxPoint x="354.65999999999997" y="175" as="sourcePoint" />
            <mxPoint x="355" y="220" as="targetPoint" />
          </mxGeometry>
        </mxCell>
        <mxCell id="rnWshpyR3_FJ3rtjjiAS-30" value="" style="endArrow=classic;startArrow=classic;html=1;rounded=0;exitX=0.434;exitY=-0.016;exitDx=0;exitDy=0;entryX=1.072;entryY=0.986;entryDx=0;entryDy=0;entryPerimeter=0;exitPerimeter=0;" edge="1" parent="1" source="rnWshpyR3_FJ3rtjjiAS-28" target="rnWshpyR3_FJ3rtjjiAS-10">
          <mxGeometry width="50" height="50" relative="1" as="geometry">
            <mxPoint x="387.19" y="257" as="sourcePoint" />
            <mxPoint x="277.19" y="190" as="targetPoint" />
          </mxGeometry>
        </mxCell>
        <mxCell id="rnWshpyR3_FJ3rtjjiAS-33" value="&lt;div align=&quot;center&quot;&gt;&lt;font style=&quot;font-size: 8px;&quot;&gt;Volumen de datos&lt;/font&gt;&lt;/div&gt;" style="strokeWidth=1;shadow=0;dashed=0;align=center;html=1;shape=mxgraph.mockup.text.textBox;fontColor=#666666;align=left;fontSize=17;spacingLeft=4;spacingTop=-3;whiteSpace=wrap;strokeColor=#666666;mainText=" vertex="1" parent="1">
          <mxGeometry x="317" y="320" width="80" height="10" as="geometry" />
        </mxCell>
        <mxCell id="rnWshpyR3_FJ3rtjjiAS-34" value="&lt;div align=&quot;center&quot;&gt;&lt;font style=&quot;font-size: 8px;&quot;&gt;Volumen de datos&lt;/font&gt;&lt;/div&gt;" style="strokeWidth=1;shadow=0;dashed=0;align=center;html=1;shape=mxgraph.mockup.text.textBox;fontColor=#666666;align=left;fontSize=17;spacingLeft=4;spacingTop=-3;whiteSpace=wrap;strokeColor=#666666;mainText=" vertex="1" parent="1">
          <mxGeometry x="450" y="320" width="80" height="10" as="geometry" />
        </mxCell>
        <mxCell id="rnWshpyR3_FJ3rtjjiAS-35" value="&lt;div align=&quot;center&quot;&gt;&lt;font style=&quot;font-size: 8px;&quot;&gt;Nginx&lt;/font&gt;&lt;/div&gt;" style="strokeWidth=1;shadow=0;dashed=0;align=center;html=1;shape=mxgraph.mockup.text.textBox;fontColor=#666666;align=left;fontSize=17;spacingLeft=4;spacingTop=-3;whiteSpace=wrap;strokeColor=#666666;mainText=" vertex="1" parent="1">
          <mxGeometry x="225" y="110" width="30" height="17" as="geometry" />
        </mxCell>
        <mxCell id="rnWshpyR3_FJ3rtjjiAS-36" value="&lt;font style=&quot;font-size: 8px;&quot;&gt;PHP-FPM&lt;/font&gt;" style="strokeWidth=1;shadow=0;dashed=0;align=center;html=1;shape=mxgraph.mockup.text.textBox;fontColor=#666666;align=left;fontSize=17;spacingLeft=4;spacingTop=-3;whiteSpace=wrap;strokeColor=#666666;mainText=" vertex="1" parent="1">
          <mxGeometry x="330" y="110" width="48" height="17" as="geometry" />
        </mxCell>
        <mxCell id="rnWshpyR3_FJ3rtjjiAS-39" value="&lt;font style=&quot;font-size: 8px;&quot;&gt;PHP-FPM&lt;/font&gt;" style="strokeWidth=1;shadow=0;dashed=0;align=center;html=1;shape=mxgraph.mockup.text.textBox;fontColor=#666666;align=left;fontSize=17;spacingLeft=4;spacingTop=-3;whiteSpace=wrap;strokeColor=#666666;mainText=" vertex="1" parent="1">
          <mxGeometry x="366" y="215" width="48" height="17" as="geometry" />
        </mxCell>
        <mxCell id="rnWshpyR3_FJ3rtjjiAS-40" value="&lt;font style=&quot;font-size: 8px;&quot;&gt;MySQL&lt;/font&gt;" style="strokeWidth=1;shadow=0;dashed=0;align=center;html=1;shape=mxgraph.mockup.text.textBox;fontColor=#666666;align=left;fontSize=17;spacingLeft=4;spacingTop=-3;whiteSpace=wrap;strokeColor=#666666;mainText=" vertex="1" parent="1">
          <mxGeometry x="473" y="110" width="34" height="17" as="geometry" />
        </mxCell>
        <mxCell id="rnWshpyR3_FJ3rtjjiAS-41" value="&lt;font style=&quot;font-size: 8px;&quot;&gt;MySQL&lt;/font&gt;" style="strokeWidth=1;shadow=0;dashed=0;align=center;html=1;shape=mxgraph.mockup.text.textBox;fontColor=#666666;align=left;fontSize=17;spacingLeft=4;spacingTop=-3;whiteSpace=wrap;strokeColor=#666666;mainText=" vertex="1" parent="1">
          <mxGeometry x="516" y="215" width="34" height="17" as="geometry" />
        </mxCell>
      </root>
    </mxGraphModel>
  </diagram>
</mxfile>
